<?xml version="1.0" encoding="UTF-8" standalone="no"?>
<!-- Created with Inkscape (http://www.inkscape.org/) -->

<svg
   xmlns:dc="http://purl.org/dc/elements/1.1/"
   xmlns:cc="http://creativecommons.org/ns#"
   xmlns:rdf="http://www.w3.org/1999/02/22-rdf-syntax-ns#"
   xmlns:svg="http://www.w3.org/2000/svg"
   xmlns="http://www.w3.org/2000/svg"
   xmlns:sodipodi="http://sodipodi.sourceforge.net/DTD/sodipodi-0.dtd"
   xmlns:inkscape="http://www.inkscape.org/namespaces/inkscape"
   width="125.4603mm"
   height="49.223522mm"
   viewBox="0 0 125.46031 49.223523"
   version="1.1"
   id="svg8"
   sodipodi:docname="logoSvg3.svg"
   inkscape:version="0.92.2 (5c3e80d, 2017-08-06)">
  <style>

    path{
    fill-opacity: 1;
    -webkit-transform: translate(0);
    transform: translate(0);
    -webkit-transition:all 1s ease;
    transition: all 1s ease;
    -webkit-animation-fill-mode: forwards;
    animation-fill-mode: forwards;
    -webkit-transform-origin: 50% 50%;
    transform-origin: 50% 50%;
    stroke-dasharray: 500;
    stroke-dashoffset: 500;
    }

    /*=========================
    Right Side Stuff
    /*=======================*/
    #right-side path:nth-of-type(5n+1)
    {
    -webkit-animation: backToPlace1 2.8s ease-in-out 1;
    animation: backToPlace1 2.8s ease-in-out 1;
    }
    @-webkit-keyframes backToPlace1{
    0%{
    -webkit-transform: translate(300%, 300%) scale(1) rotate(180deg);
    transform: translate(300%, 300%) scale(1) rotate(180deg);
    fill-opacity: 0;
    stroke-width: .15px;
    }
    100%{
    -webkit-transform: translate(0) scale(1) rotate(0deg);
    transform: translate(0) scale(1) rotate(0deg);
    fill-opacity: 1;
    stroke-width: 0;
    stroke-dashoffset: 0;
    }
    }
    @keyframes backToPlace1{
    0%{
    -webkit-transform: translate(300%, 300%) scale(1) rotate(180deg);
    transform: translate(300%, 300%) scale(1) rotate(180deg);
    fill-opacity: 0;
    stroke-width: .15px;
    }
    100%{
    -webkit-transform: translate(0) scale(1) rotate(0deg);
    transform: translate(0) scale(1) rotate(0deg);
    fill-opacity: 1;
    stroke-width: 0;
    stroke-dashoffset: 0;
    }
    }

    #left-side path:nth-of-type(5n+1)
    {
    -webkit-animation: backToPlace2 2.8s ease-in-out 1;
    animation: backToPlace2 2.8s ease-in-out 1;
    }
    @-webkit-keyframes backToPlace2{
    0%{
    -webkit-transform: translate(-300%, -300%) scale(1) rotate(180deg) translateZ(-400px);
    transform: translate(-300%, -300%) scale(1) rotate(180deg) translateZ(-400px);
    fill-opacity: 0;
    stroke-width: .15px;
    }
    100%{
    -webkit-transform: translate(0) scale(1) rotate(0deg);
    transform: translate(0) scale(1) rotate(0deg);
    fill-opacity: 1;
    stroke-width: 0;
    stroke-dashoffset: 0;
    }
    }
    @keyframes backToPlace2{
    0%{
    -webkit-transform: translate(-300%, -300%) scale(1) rotate(180deg) translateZ(-400px);
    transform: translate(-300%, -300%) scale(1) rotate(180deg) translateZ(-400px);
    fill-opacity: 0;
    stroke-width: .15px;
    }
    100%{
    -webkit-transform: translate(0) scale(1) rotate(0deg);
    transform: translate(0) scale(1) rotate(0deg);
    fill-opacity: 1;
    stroke-width: 0;
    stroke-dashoffset: 0;
    }
    }







  </style>

  <defs
     id="defs2" />
  <sodipodi:namedview
     id="base"
     pagecolor="#ffffff"
     bordercolor="#666666"
     borderopacity="1.0"
     inkscape:pageopacity="0.0"
     inkscape:pageshadow="2"
     inkscape:zoom="1.32"
     inkscape:cx="325.4871"
     inkscape:cy="19.118074"
     inkscape:document-units="mm"
     inkscape:current-layer="layer1"
     showgrid="false"
     fit-margin-top="0"
     fit-margin-left="0"
     fit-margin-right="0"
     fit-margin-bottom="0"
     inkscape:pagecheckerboard="false"
     inkscape:window-width="1366"
     inkscape:window-height="705"
     inkscape:window-x="-8"
     inkscape:window-y="-8"
     inkscape:window-maximized="1" />
  <metadata
     id="metadata5">
    <rdf:RDF>
      <cc:Work
         rdf:about="">
        <dc:format>image/svg+xml</dc:format>
        <dc:type
           rdf:resource="http://purl.org/dc/dcmitype/StillImage" />
        <dc:title></dc:title>
      </cc:Work>
    </rdf:RDF>
  </metadata>
  <g
     inkscape:label="Capa 1"
     inkscape:groupmode="layer"
     id="layer1"
     transform="translate(-62.485856,-94.182233)">
    <g
       id="g1006"
       transform="translate(-3.2006048,-1.4936156)">
                   <g
                 id="g1009">
               <g id="left-side">
                <path
                   style="fill:#ffffff;stroke-width:0.26458332"
                   d="M 65.686461,95.675849 Z"
                   id="path1149"
                   inkscape:connector-curvature="0" />
                <path
                   style="fill:#ffffff;stroke-width:0.26458332"
                   d="m 144.21426,143.23053 0.0789,-1.48371 0.58261,-0.0829 0.58261,-0.0829 v -0.39688 -0.39687 l -1.65365,-0.0788 -1.65364,-0.0788 v 0.54179 0.5418 h 0.52916 0.52917 v 1.41111 1.41111 l 0.1819,0.1819 0.1819,0.1819 0.28112,-0.0926 0.28112,-0.0926 z"
                   id="path1147"
                   inkscape:connector-curvature="0" />
                <path
                   id="path1143"
                   style="fill:#ffffff;stroke-width:0.26458332"
                   d="m 146.91354,142.11022 v -0.39687 h 0.38125 0.38127 l 0.14638,0.23686 0.14639,0.23685 -0.417,0.16002 -0.41699,0.16002 h -0.11065 -0.11065 z m 0.0127,1.83026 0.145,-0.77192 0.45711,0.85989 0.45711,0.8599 h 0.20487 0.20487 l 0.29818,-0.29818 0.29818,-0.29818 -0.23515,-0.6185 -0.23516,-0.61849 0.25448,-0.15728 0.25447,-0.15727 v -0.76882 -0.76883 l -0.51177,-0.27389 -0.51177,-0.2739 h -1.07573 -1.07573 v 1.94028 1.94028 l 0.1819,0.1819 0.1819,0.1819 0.28112,-0.0935 0.28112,-0.0935 z"
                   inkscape:connector-curvature="0" />
                <path
                   id="path1139"
                   style="fill:#ffffff;stroke-width:0.26458332"
                   d="m 150.88228,142.5071 v -0.52917 h 0.10144 0.10143 l 0.13838,0.52917 0.13838,0.52916 h -0.23981 -0.23982 z m -0.60582,1.85208 0.13837,-0.52917 h 0.52205 0.52204 l 0.43929,0.52765 0.43928,0.52764 0.371,-0.23742 0.371,-0.23741 -0.63558,-1.81158 -0.63558,-1.81158 -0.68571,-0.0797 -0.68571,-0.0797 -0.57106,1.49228 -0.57107,1.49229 v 0.46152 0.46153 l 0.17639,0.17639 0.17639,0.17639 h 0.24526 0.24526 z"
                   inkscape:connector-curvature="0" />
                <path
                   style="fill:#ffffff;stroke-width:0.26458332"
                   d="m 154.53301,143.23053 0.0789,-1.48371 0.58261,-0.0829 0.58261,-0.0829 v -0.39688 -0.39687 l -1.65365,-0.0788 -1.65365,-0.0788 v 0.54179 0.5418 h 0.52917 0.52917 v 1.41111 1.41111 l 0.1819,0.1819 0.1819,0.1819 0.28112,-0.0926 0.28112,-0.0926 z"
                   id="path1137"
                   inkscape:connector-curvature="0" />
                <path
                   id="path1133"
                   style="fill:#ffffff;stroke-width:0.26458332"
                   d="m 157.23514,143.43658 -0.32653,-0.39345 0.16688,-0.66489 0.16687,-0.66489 h 0.51909 0.51909 l 0.16687,0.66489 0.16688,0.66489 -0.32652,0.39345 -0.32653,0.39343 h -0.19979 -0.19979 z m 1.26704,1.16602 0.8197,-0.28575 0.28531,-0.86449 0.28531,-0.8645 -0.1797,-0.5034 -0.1797,-0.5034 -0.39767,-0.46303 -0.39766,-0.46302 h -0.77014 -0.77013 l -0.52444,0.28067 -0.52444,0.28067 -0.25986,0.68349 -0.25986,0.68348 0.28094,0.85125 0.28094,0.85125 0.5869,0.28336 0.5869,0.28335 0.15895,0.0179 0.15896,0.0179 0.81969,-0.28575 z"
                   inkscape:connector-curvature="0" />
                <path
                   style="fill:#ffffff;stroke-width:0.26458332"
                   d="m 161.33333,144.35918 0.16352,-0.26458 -0.18505,-0.29942 -0.18505,-0.29941 -0.029,-1.35423 -0.029,-1.35423 -0.23574,-0.1323 -0.23575,-0.13229 -0.28495,0.45174 -0.28495,0.45173 0.28713,1.07572 0.28712,1.07571 -0.22945,0.14181 -0.22945,0.14181 v 0.38126 0.38126 h 0.51355 0.51356 z"
                   id="path1131"
                   inkscape:connector-curvature="0" />
                <path
                   style="fill:#ffffff;stroke-width:0.26458332"
                   d="m 99.685416,141.05312 2.381254,-0.6897 1.97237,-1.11098 1.97239,-1.11097 1.8366,-1.71979 1.83661,-1.71979 1.05168,-1.42112 1.05169,-1.42111 0.89358,-1.93406 0.89359,-1.93404 0.43891,-1.80421 0.43892,-1.80421 0.002,-2.91042 0.002,-2.91041 -0.42996,-1.57624 -0.42997,-1.57624 0.0802,-0.0802 0.0802,-0.0802 1.13287,0.3997 1.13287,0.3997 h 0.64577 0.64576 l -0.0837,-0.71671 -0.0837,-0.71671 -2.64387,-1.55656 -2.64386,-1.55656 -0.36928,0.23294 -0.36927,0.23293 -1.15405,2.60401 -1.15405,2.60401 v 0.46635 0.46636 l 0.39688,0.15229 0.39687,0.1523 0.33073,-0.13234 0.33073,-0.13234 0.77325,-1.08961 0.77325,-1.08962 0.21892,0.59179 0.21891,0.59179 -0.26366,2.32746 -0.26365,2.32746 -0.56045,1.81673 -0.56044,1.81674 -0.73468,1.45697 -0.73469,1.45696 -1.21813,1.62048 -1.21813,1.62048 -1.65484,1.35584 -1.65483,1.35586 -1.71979,0.90021 -1.719788,0.90022 -1.984375,0.61318 -1.984375,0.61318 -3.175,-0.002 -3.174999,-0.002 -1.719792,-0.47642 -1.719791,-0.47642 -2.139131,-1.04255 -2.139131,-1.04256 -1.751565,-1.44477 -1.751564,-1.44477 -1.268679,-1.57318 -1.268912,-1.57318 -0.480851,-0.0183 -0.48085,-0.0183 0.165816,0.59531 0.165815,0.59531 1.023046,2.11667 1.023046,2.11667 1.518599,1.67751 1.518599,1.67751 1.823846,1.28084 1.823847,1.28084 1.947419,0.81071 1.947419,0.81071 2.071915,0.39263 2.071916,0.39263 2.645833,-0.11206 2.645833,-0.11205 z"
                   id="path1129"
                   inkscape:connector-curvature="0" />
                <path
                   style="fill:#ffffff;stroke-width:0.26458332"
                   d="m 133.90704,137.85854 -0.0508,-1.96603 h -0.43586 -0.43587 l -0.051,1.9001 -0.051,1.9001 0.32217,0.19911 0.32217,0.19911 0.21549,-0.13318 0.2155,-0.13318 z"
                   id="path1127"
                   inkscape:connector-curvature="0" />
                <path
                   style="fill:#ffffff;stroke-width:0.26458332"
                   d="m 135.80104,138.27376 v -0.79375 h 0.66145 0.66146 v 0.79375 0.79375 h 0.52917 0.52917 v -1.98437 -1.98438 h -0.52917 -0.52917 v 0.66146 0.66146 h -0.66146 -0.66145 v -0.66146 -0.66146 h -0.52917 -0.52917 v 1.98438 1.98437 h 0.52917 0.52917 z"
                   id="path1125"
                   inkscape:connector-curvature="0" />
                <path
                   id="path1121"
                   style="fill:#ffffff;stroke-width:0.26458332"
                   d="m 140.31984,136.79651 0.0209,-0.50712 0.13896,0.34726 0.13897,0.34727 -0.15986,0.15985 -0.15985,0.15985 0.0209,-0.50711 z m -0.64574,1.87413 0.1523,-0.39688 h 0.63315 0.63315 v 0.39688 0.39687 h 0.52917 0.52917 l -0.0205,-0.59531 -0.0205,-0.59531 -0.46535,-1.32292 -0.46535,-1.32291 h -0.74421 -0.74421 l -0.62566,1.673 -0.62567,1.67301 0.15156,0.24522 0.15155,0.24522 h 0.38957 0.38956 l 0.1523,-0.39687 z"
                   inkscape:connector-curvature="0" />
                <path
                   style="fill:#ffffff;stroke-width:0.26458332"
                   d="m 146.06714,137.90792 -0.0796,-1.08936 -0.62583,-0.0886 -0.62582,-0.0885 -0.30022,0.3048 -0.30021,0.30479 0.50363,0.37179 0.50364,0.37178 -0.47575,0.18256 -0.47575,0.18256 -0.35861,-0.49043 -0.35862,-0.49044 v -0.29573 -0.29574 l 0.38076,-0.51359 0.38076,-0.51359 0.54169,0.33073 0.54169,0.33073 h 0.28658 0.28658 l -0.0846,-0.59531 -0.0845,-0.59531 -1.10997,-0.0807 -1.10998,-0.0807 -0.54367,0.54368 -0.54367,0.54367 v 0.97135 0.97136 l 0.43593,0.4817 0.43593,0.4817 1.42965,-0.033 1.42965,-0.033 z"
                   id="path1119"
                   inkscape:connector-curvature="0" />
               </g>
                     <g id="right-side">
                <path
                   id="path1115"
                   style="fill:#ffffff;stroke-width:0.26458332"
                   d="m 148.25734,136.79651 0.0209,-0.50712 0.13896,0.34726 0.13896,0.34727 -0.15985,0.15985 -0.15985,0.15985 0.0209,-0.50711 z m -0.64574,1.87413 0.1523,-0.39688 h 0.63315 0.63315 v 0.39688 0.39687 h 0.52917 0.52916 l -0.0205,-0.59531 -0.0205,-0.59531 -0.46535,-1.32292 -0.46535,-1.32291 h -0.74421 -0.74421 l -0.62566,1.673 -0.62567,1.67301 0.15156,0.24522 0.15155,0.24522 h 0.38957 0.38956 l 0.1523,-0.39687 z"
                   inkscape:connector-curvature="0" />
                <path
                   style="fill:#ffffff;stroke-width:0.26458332"
                   d="m 151.70418,138.33991 0.0281,-0.7276 0.29145,0.73879 0.29145,0.7388 0.51804,-0.0773 0.51806,-0.0773 0.33285,-0.92604 0.33285,-0.92604 0.0201,0.99219 0.0201,0.99218 h 0.54075 0.54076 l -0.0777,-1.91823 -0.0777,-1.91822 -0.59975,-0.0851 -0.59975,-0.0851 -0.48354,1.08001 -0.48353,1.08001 -0.41679,-1.06103 -0.41678,-1.06103 h -0.68274 -0.68275 v 1.98438 1.98437 h 0.52917 0.52917 l 0.0281,-0.7276 z"
                   id="path1113"
                   inkscape:connector-curvature="0" />
                <path
                   id="path1109"
                   style="fill:#ffffff;stroke-width:0.26458332"
                   d="m 157.02062,137.95626 -0.3175,-0.3175 v -0.57614 -0.57615 l 0.39687,-0.32937 0.39688,-0.32938 0.39687,0.32938 0.39688,0.32937 v 0.57615 0.57614 l -0.3175,0.3175 -0.3175,0.3175 h -0.15875 -0.15875 z m 1.94336,0.56893 0.4908,-0.54233 v -0.89972 -0.89972 l -0.4908,-0.54233 -0.49079,-0.54233 h -0.97632 -0.97632 l -0.4908,0.54233 -0.4908,0.54233 v 0.89972 0.89972 l 0.4908,0.54233 0.4908,0.54232 h 0.97632 0.97632 z"
                   inkscape:connector-curvature="0" />
                <path
                   style="fill:#ffffff;stroke-width:0.26458332"
                   d="m 162.90193,138.65174 0.41577,-0.41577 v -0.26308 -0.26308 l -0.26238,-0.49027 -0.26239,-0.49027 -0.79291,-0.17415 -0.79292,-0.17415 -0.1767,-0.28591 -0.1767,-0.2859 0.63669,0.19091 0.63669,0.1909 0.39687,0.0492 0.39688,0.0492 v -0.51926 -0.51927 l -0.85157,-0.24423 -0.85157,-0.24422 -0.66979,0.43886 -0.66978,0.43886 v 0.62296 0.62296 l 0.33073,0.2605 0.33073,0.2605 0.76587,0.18342 0.76588,0.18342 -0.27445,0.27445 -0.27445,0.27445 -0.54018,-0.2891 -0.54018,-0.28909 h -0.28198 -0.28197 v 0.48507 0.48507 l 0.17639,0.17638 0.17638,0.17639 h 1.12763 1.12763 z"
                   id="path1107"
                   inkscape:connector-curvature="0" />
                <path
                   style="fill:#ffffff;stroke-width:0.26458332"
                   d="m 167.7667,138.60454 -0.0877,-0.46302 -0.85773,-0.0829 -0.85773,-0.0829 v -0.24782 -0.24782 h 0.79375 0.79375 v -0.39687 -0.39688 h -0.79375 -0.79375 v -0.24782 -0.24782 l 0.8599,-0.0829 0.8599,-0.0829 v -0.39688 -0.39687 l -1.38907,-0.08 -1.38906,-0.08 v 1.9982 1.9982 h 1.47461 1.47461 z"
                   id="path1105"
                   inkscape:connector-curvature="0" />
                <path
                   style="fill:#ffffff;stroke-width:0.26458332"
                   d="m 170.99062,138.53844 v -0.52917 h -0.79375 -0.79375 v -1.45521 -1.45521 h -0.52917 -0.52917 v 1.98438 1.98437 h 1.32292 1.32292 z"
                   id="path1103"
                   inkscape:connector-curvature="0" />
                <path
                   id="path1099"
                   style="fill:#ffffff;stroke-width:0.26458332"
                   d="m 182.27676,125.00962 -0.48781,-0.28356 -0.37208,-0.89052 -0.37209,-0.89052 0.001,-1.66215 0.001,-1.66214 0.5283,-0.86649 0.5283,-0.86649 0.66133,-0.25144 0.66134,-0.25144 0.66134,0.25144 0.66133,0.25144 0.5283,0.86649 0.5283,0.86649 0.001,1.50413 0.001,1.50413 -0.28221,0.74483 -0.28221,0.74483 -0.55766,0.59531 -0.55766,0.59531 -0.68149,-0.008 -0.68148,-0.008 -0.48781,-0.28355 z m -2.00538,8.78667 0.7734,-0.7734 v -2.53389 -2.5339 h 0.14543 0.14543 l 0.81959,0.42383 0.81959,0.42382 1.90312,-0.0961 1.90311,-0.0961 1.11476,-0.73771 1.11476,-0.73771 0.75894,-1.19673 0.75894,-1.19673 0.30916,-1.83287 0.30915,-1.83286 -0.30915,-1.83287 -0.30916,-1.83287 -0.74308,-1.17171 -0.74307,-1.17171 -1.17188,-0.5673 -1.17188,-0.56729 h -1.74196 -1.74196 l -1.3495,0.90815 -1.3495,0.90815 v -0.35978 -0.35978 l -0.69714,-0.54837 -0.69714,-0.54837 h -0.90239 -0.90239 l -0.64943,0.64943 -0.64943,0.64943 v 8.89592 8.89592 l 0.7734,0.7734 0.77339,0.7734 h 0.96675 0.96675 z"
                   inkscape:connector-curvature="0" />
                <path
                   style="fill:#ffffff;stroke-width:0.26458332"
                   d="m 134.10649,128.19427 1.23524,-0.63604 0.49423,-0.92192 0.49424,-0.92191 v -1.48635 -1.48636 l -0.59531,-0.87469 -0.59531,-0.8747 -0.66146,-0.48146 -0.66146,-0.48146 -1.71979,-0.40816 -1.71979,-0.40816 -0.99219,-0.26981 -0.99219,-0.2698 v -0.50924 -0.50924 l 0.56546,-0.30262 0.56545,-0.30262 0.89989,0.14603 0.89989,0.14603 0.81989,0.68989 0.81989,0.68989 1.07978,-0.0796 1.07978,-0.0796 0.39666,-0.70977 0.39666,-0.70977 -0.45783,-0.9601 -0.45784,-0.96009 -1.5179,-0.70394 -1.5179,-0.70393 -2.11667,-0.005 -2.11667,-0.005 -1.21177,0.46541 -1.21176,0.46542 -0.67455,0.72291 -0.67454,0.7229 -0.31883,0.99768 -0.31883,0.99767 0.17943,1.06203 0.17943,1.06203 0.66817,0.79407 0.66816,0.79407 0.74754,0.38657 0.74754,0.38657 2.16136,0.50327 2.16136,0.50327 0.39522,0.39523 0.39523,0.39522 -0.5873,0.5873 -0.5873,0.5873 -0.92586,-0.15024 -0.92586,-0.15025 -1.36175,-0.93787 -1.36175,-0.93787 h -0.73734 -0.73734 l -0.64943,0.64943 -0.64943,0.64943 v 0.8792 0.87919 l 0.41293,0.58955 0.41294,0.58955 0.7979,0.41261 0.79791,0.41262 1.10426,0.23462 1.10426,0.23461 2.57,-0.0789 2.57,-0.0789 1.23525,-0.63603 z"
                   id="path1097"
                   inkscape:connector-curvature="0" />
                <path
                   id="path1093"
                   style="fill:#ffffff;stroke-width:0.26458332"
                   d="m 165.22866,125.16198 -0.58804,-0.41188 v -0.63145 -0.63146 l 0.58804,-0.41188 0.58803,-0.41187 h 1.39634 1.39634 v 0.41001 0.41002 l -0.37703,0.72909 c 0,0 -0.17882,0.54051 -0.37704,0.72911 -0.1841,0.17517 -0.69375,0.31609 -0.69375,0.31609 l -0.69375,0.31609 h -0.32555 -0.32556 z m 2.07706,3.17027 0.68073,-0.34226 0.34091,-0.41077 0.34091,-0.41077 0.73816,0.7902 0.73816,0.7902 h 0.93743 0.93742 l 0.74236,-0.63791 0.74236,-0.63792 0.0897,-4.05844 0.0898,-4.05843 -0.31089,-1.40572 -0.31089,-1.40571 -0.77442,-0.88201 -0.77441,-0.88201 -0.99357,-0.39755 -0.99356,-0.39754 -1.4942,-0.18669 -1.49419,-0.18669 -1.86963,0.31535 -1.86962,0.31536 -0.85797,0.57818 -0.85796,0.57818 -0.37822,0.67384 -0.37821,0.67384 0.17337,0.69077 0.17337,0.69077 0.41538,0.41537 0.41538,0.41538 h 1.0451 1.04511 l 1.0904,-0.72159 1.0904,-0.72159 h 1.04632 1.04632 l 0.37115,0.50758 0.37115,0.50757 v 0.61089 0.61089 h -1.97136 -1.97135 l -1.37976,0.29591 -1.37977,0.2959 -1.06604,0.99439 -1.06603,0.99439 -0.0967,1.68627 -0.0967,1.68627 0.50887,0.92604 0.50886,0.92604 0.87101,0.51134 0.871,0.51134 0.95116,0.17846 0.95115,0.17846 1.19063,-0.13167 1.19062,-0.13166 z"
                   inkscape:connector-curvature="0" />
                <path
                   style="fill:#ffffff;stroke-width:0.26458332"
                   d="m 144.98246,128.2304 0.84705,-0.51648 0.37719,-0.7393 0.37718,-0.73931 0.54882,-2.51354 0.54882,-2.51354 0.10423,-0.52917 0.10422,-0.52916 0.14409,0.39687 0.14409,0.39688 0.58259,2.77812 0.58258,2.77813 0.38698,0.60794 0.38699,0.60794 0.84552,0.51555 0.84552,0.51554 h 1.05833 1.05833 l 0.84552,-0.51554 0.84552,-0.51555 0.39864,-0.6084 0.39864,-0.6084 1.20324,-4.98837 1.20323,-4.98837 v -0.64559 -0.6456 l -0.64943,-0.64943 -0.64943,-0.64943 h -0.95009 -0.9501 l -0.6001,0.6001 -0.60011,0.60011 -0.57359,2.90562 -0.5736,2.90563 -0.18039,1.57894 -0.18038,1.57894 -0.19343,-0.52061 -0.19344,-0.52061 -0.73954,-3.51815 -0.73954,-3.51816 -0.47916,-0.78792 -0.47916,-0.78792 -0.67856,-0.25798 -0.67856,-0.25799 h -0.93528 -0.93527 l -0.8355,0.85989 -0.8355,0.8599 -0.75374,3.57187 -0.75374,3.57188 -0.14504,0.39687 -0.14504,0.39688 -0.0741,-0.39688 -0.0741,-0.39687 -0.56257,-3.175 -0.56257,-3.175 -0.26871,-0.85908 -0.26871,-0.85907 -0.56779,-0.3977 -0.56779,-0.39769 h -0.8083 -0.8083 l -0.60473,0.42357 -0.60474,0.42358 -0.25886,0.68086 -0.25887,0.68087 1.23081,5.17941 1.23082,5.17942 0.38204,0.60794 0.38204,0.60794 0.84552,0.51555 0.84552,0.51554 h 1.05834 1.05833 z"
                   id="path1091"
                   inkscape:connector-curvature="0" />
                <path
                   style="fill:#ffffff;stroke-width:0.26458332"
                   d="m 76.663822,124.5221 1.255137,-2.90383 -0.154821,-0.40346 -0.154821,-0.40346 -0.603616,0.006 -0.603617,0.006 -0.79375,1.18423 -0.79375,1.18423 -0.23749,5.3e-4 -0.23749,5.3e-4 0.174606,-2.48397 0.174606,-2.48397 0.517565,-2.02366 0.517565,-2.02366 1.070469,-2.05758 1.070468,-2.05757 1.385267,-1.62183 1.385267,-1.62183 1.322917,-1.03238 1.322916,-1.03238 1.218632,-0.70525 1.218631,-0.70525 1.92877,-0.65601 1.92877,-0.65602 2.230217,-0.27714 2.230215,-0.27714 2.087817,0.28587 2.087816,0.28586 1.660903,0.54524 1.660899,0.54525 1.06012,0.53792 1.06012,0.53792 1.19063,0.80734 1.19062,0.80735 1.23694,1.03322 1.23694,1.03323 1.14149,1.43051 1.14149,1.43051 h 0.20956 0.20957 l 0.15881,-0.41387 0.15882,-0.41387 -1.1297,-2.29811 -1.12969,-2.29801 -2.41086,-2.38737 -2.41087,-2.38738 -2.24895,-1.121992 L 99.95,98.31485 97.857157,97.789325 95.764311,97.263799 h -2.882009 -2.882007 l -1.904314,0.417856 -1.904313,0.417857 -2.771618,1.335761 -2.771618,1.335757 -2.543386,2.54587 -2.543385,2.54586 -1.233154,2.51354 -1.233154,2.51354 -0.459138,1.71979 -0.459138,1.71979 0.01002,3.30729 0.01002,3.3073 0.331196,1.14102 0.331196,1.14103 0.145701,0.37969 0.145701,0.37969 -1.61846,-0.58233 -1.61846,-0.58233 -0.4037,0.4037 -0.4037,0.4037 0.149888,0.3906 0.149888,0.39061 2.439521,1.50206 2.439521,1.50206 0.561634,0.006 0.561635,0.006 1.255136,-2.90383 z"
                   id="path1089"
                   inkscape:connector-curvature="0" />
                <path
                   style="fill:#ffffff;stroke-width:0.26458332"
                   d="m 88.969792,120.81135 0.529166,-0.52916 v -0.70677 -0.70677 l -0.437882,-0.48386 -0.437882,-0.48385 h -0.866136 -0.866135 l -0.415774,0.41577 -0.415774,0.41577 v 0.89214 0.89214 l 0.588038,0.41188 0.588038,0.41188 h 0.602587 0.602587 z"
                   id="path1087"
                   inkscape:connector-curvature="0" />
                <path
                   style="fill:#ffffff;stroke-width:0.26458332"
                   d="m 100.02342,120.92864 0.58804,-0.41188 v -0.89214 -0.89214 l -0.41578,-0.41577 -0.415771,-0.41577 h -0.820162 -0.820164 l -0.483854,0.43788 -0.483854,0.43788 v 0.75274 0.75275 l 0.529167,0.52916 0.529166,0.52917 h 0.602586 0.602589 z"
                   id="path859"
                   inkscape:connector-curvature="0" />
              </g>
                   </g>

    </g>
  </g>
</svg>
